<svg id="_x31__x2C_5" enable-background="new 0 0 24 24" height="512" viewBox="0 0 24 24" width="512" xmlns="http://www.w3.org/2000/svg"><circle cx="12" cy="12" fill="#eceff1" r="11.25"/><path d="m10.7 17.125c0 .868-.707 1.575-1.575 1.575h-2.25c-.868 0-1.575-.707-1.575-1.575v-2.25c0-.868.707-1.575 1.575-1.575h2.25c.868 0 1.575.707 1.575 1.575z" fill="#2196f3"/><path d="m10.7 9.125c0 .868-.707 1.575-1.575 1.575h-2.25c-.868 0-1.575-.707-1.575-1.575v-2.25c0-.868.707-1.575 1.575-1.575h2.25c.868 0 1.575.707 1.575 1.575z" fill="#4caf50"/><path d="m18.7 17.125c0 .868-.707 1.575-1.575 1.575h-2.25c-.868 0-1.575-.707-1.575-1.575v-2.25c0-.868.707-1.575 1.575-1.575h2.25c.868 0 1.575.707 1.575 1.575z" fill="#f44336"/><path d="m18.7 9.125c0 .868-.707 1.575-1.575 1.575h-2.25c-.868 0-1.575-.707-1.575-1.575v-2.25c0-.868.707-1.575 1.575-1.575h2.25c.868 0 1.575.707 1.575 1.575z" fill="#ffc107"/><path d="m12 24c-6.617 0-12-5.383-12-12s5.383-12 12-12 12 5.383 12 12-5.383 12-12 12zm0-22.5c-5.79 0-10.5 4.71-10.5 10.5s4.71 10.5 10.5 10.5 10.5-4.71 10.5-10.5-4.71-10.5-10.5-10.5z"/><path d="m9.25 11h-2.5c-.965 0-1.75-.785-1.75-1.75v-2.5c0-.965.785-1.75 1.75-1.75h2.5c.965 0 1.75.785 1.75 1.75v2.5c0 .965-.785 1.75-1.75 1.75zm-2.5-4.5c-.138 0-.25.112-.25.25v2.5c0 .138.112.25.25.25h2.5c.138 0 .25-.112.25-.25v-2.5c0-.138-.112-.25-.25-.25z"/><path d="m17.25 11h-2.5c-.965 0-1.75-.785-1.75-1.75v-2.5c0-.965.785-1.75 1.75-1.75h2.5c.965 0 1.75.785 1.75 1.75v2.5c0 .965-.785 1.75-1.75 1.75zm-2.5-4.5c-.138 0-.25.112-.25.25v2.5c0 .138.112.25.25.25h2.5c.138 0 .25-.112.25-.25v-2.5c0-.138-.112-.25-.25-.25z"/><path d="m9.25 19h-2.5c-.965 0-1.75-.785-1.75-1.75v-2.5c0-.965.785-1.75 1.75-1.75h2.5c.965 0 1.75.785 1.75 1.75v2.5c0 .965-.785 1.75-1.75 1.75zm-2.5-4.5c-.138 0-.25.112-.25.25v2.5c0 .138.112.25.25.25h2.5c.138 0 .25-.112.25-.25v-2.5c0-.138-.112-.25-.25-.25z"/><path d="m17.25 19h-2.5c-.965 0-1.75-.785-1.75-1.75v-2.5c0-.965.785-1.75 1.75-1.75h2.5c.965 0 1.75.785 1.75 1.75v2.5c0 .965-.785 1.75-1.75 1.75zm-2.5-4.5c-.138 0-.25.112-.25.25v2.5c0 .138.112.25.25.25h2.5c.138 0 .25-.112.25-.25v-2.5c0-.138-.112-.25-.25-.25z"/></svg>